<?xml version="1.0" encoding="utf-8"?>
<!-- Generator: Adobe Illustrator 16.0.0, SVG Export Plug-In . SVG Version: 6.00 Build 0)  -->
<!DOCTYPE svg PUBLIC "-//W3C//DTD SVG 1.1//EN" "http://www.w3.org/Graphics/SVG/1.1/DTD/svg11.dtd">
<svg version="1.1" id="레이어_1" xmlns="http://www.w3.org/2000/svg" xmlns:xlink="http://www.w3.org/1999/xlink" x="0px"
	 y="0px" width="351.821px" height="52.378px" viewBox="0 0 351.821 52.378" enable-background="new 0 0 351.821 52.378"
	 xml:space="preserve">
<g>
	<path fill="#FFFFFF" d="M45.828,27.182L45.828,27.182c2.22,3.163,2.22,7.433,0,10.596L35.582,52.378L0,1.676
		c1.071-0.924,2.341-1.371,3.601-1.371c1.749,0,3.479,0.861,4.636,2.511l27.345,38.967L45.828,27.182z"/>
	<path fill="#FFFFFF" d="M71.377,1.371l-11.42,16.273c-1.831,2.608-5.606,2.608-7.436,0.001L63.142,2.512
		C65.131-0.323,68.818-0.836,71.377,1.371"/>
	<path fill="#FFFFFF" d="M102.28,1.371L66.485,52.378l-15.453-22.02l-3.715-5.296L30.904,1.675c1.07-0.923,2.34-1.37,3.601-1.37
		c1.748,0,3.478,0.86,4.633,2.511l11.894,16.95l3.719,5.298l11.734,16.719L94.043,2.512C96.034-0.323,99.721-0.836,102.28,1.371"/>
	<g>
		<path fill="#FFFFFF" d="M187.438,15.939h-1.512v-3.688h-3.9v3.688h-1.518V7.628h1.518v3.46h3.9v-3.46h1.512V15.939z"/>
		<path fill="#FFFFFF" d="M192.518,11.567l2.009-3.939h1.679l-2.926,5.252v3.06h-1.521v-3.06l-2.932-5.252h1.685L192.518,11.567z"/>
		<path fill="#FFFFFF" d="M203.56,7.628v5.555c0,0.883-0.297,1.582-0.89,2.098c-0.594,0.516-1.385,0.773-2.371,0.773
			c-1,0-1.793-0.254-2.379-0.762c-0.588-0.509-0.883-1.214-0.883-2.115V7.628h1.512v5.561c0,0.556,0.146,0.979,0.443,1.272
			c0.295,0.293,0.73,0.439,1.307,0.439c1.166,0,1.75-0.586,1.75-1.758V7.628H203.56z"/>
		<path fill="#FFFFFF" d="M212.713,15.939h-1.517l-3.89-5.896v5.896h-1.518V7.628h1.518l3.9,5.92v-5.92h1.506V15.939L212.713,15.939
			z"/>
		<path fill="#FFFFFF" d="M215.122,15.939V7.628h2.576c0.771,0,1.455,0.164,2.053,0.491c0.599,0.327,1.062,0.792,1.389,1.393
			c0.326,0.602,0.49,1.29,0.49,2.066v0.417c0,0.788-0.164,1.48-0.494,2.078c-0.329,0.597-0.799,1.058-1.407,1.381
			c-0.608,0.323-1.31,0.485-2.097,0.485H215.122z M216.637,8.793v5.993h0.988c0.795,0,1.406-0.236,1.832-0.71
			c0.424-0.475,0.642-1.154,0.649-2.041v-0.463c0-0.901-0.207-1.59-0.618-2.066c-0.41-0.476-1.009-0.713-1.792-0.713H216.637
			L216.637,8.793z"/>
		<path fill="#FFFFFF" d="M228.504,14.004h-3.381l-0.707,1.936h-1.576l3.296-8.312h1.36l3.303,8.312h-1.582L228.504,14.004z
			 M225.549,12.84h2.529l-1.267-3.448L225.549,12.84z"/>
		<path fill="#FFFFFF" d="M234.002,15.939h-1.512V7.628h1.512V15.939z"/>
		<path fill="#FFFFFF" d="M241.642,14.786h3.962v1.153h-5.479V7.628h1.517V14.786z"/>
		<path fill="#FFFFFF" d="M253.604,7.628v5.555c0,0.883-0.297,1.582-0.891,2.098c-0.592,0.516-1.383,0.773-2.369,0.773
			c-1,0-1.793-0.254-2.381-0.762c-0.586-0.509-0.881-1.214-0.881-2.115V7.628h1.512v5.561c0,0.556,0.146,0.979,0.443,1.272
			c0.295,0.293,0.729,0.439,1.307,0.439c1.166,0,1.75-0.586,1.75-1.758V7.628H253.604z"/>
		<path fill="#FFFFFF" d="M258.84,10.631l1.834-3.003h1.75l-2.639,4.122l2.697,4.189h-1.77l-1.875-3.048l-1.883,3.048h-1.762
			l2.703-4.189l-2.645-4.122h1.75L258.84,10.631z"/>
		<path fill="#FFFFFF" d="M271.036,12.001c0,0.814-0.147,1.528-0.443,2.144c-0.297,0.614-0.719,1.086-1.268,1.415
			c-0.55,0.329-1.182,0.494-1.896,0.494c-0.708,0-1.338-0.165-1.893-0.494c-0.553-0.329-0.979-0.798-1.281-1.407
			c-0.303-0.608-0.455-1.311-0.459-2.105v-0.469c0-0.811,0.15-1.525,0.453-2.146c0.301-0.62,0.728-1.095,1.275-1.424
			c0.551-0.329,1.18-0.494,1.891-0.494c0.713,0,1.342,0.163,1.893,0.488c0.55,0.325,0.974,0.794,1.273,1.404
			c0.299,0.611,0.451,1.321,0.455,2.132V12.001L271.036,12.001z M269.519,11.567c0-0.921-0.183-1.627-0.548-2.118
			c-0.366-0.491-0.885-0.736-1.557-0.736c-0.654,0-1.168,0.244-1.537,0.733c-0.369,0.489-0.56,1.181-0.566,2.075V12
			c0,0.913,0.188,1.619,0.561,2.117c0.373,0.499,0.894,0.748,1.557,0.748c0.671,0,1.188-0.243,1.55-0.73
			c0.36-0.487,0.542-1.199,0.542-2.135L269.519,11.567L269.519,11.567z"/>
		<path fill="#FFFFFF" d="M280.07,15.939h-1.517l-3.891-5.896v5.896h-1.517V7.628h1.517l3.901,5.92v-5.92h1.505L280.07,15.939
			L280.07,15.939z"/>
		<path fill="#FFFFFF" d="M292.793,13.233c-0.088,0.887-0.433,1.579-1.031,2.075c-0.6,0.497-1.396,0.745-2.393,0.745
			c-0.695,0-1.308-0.157-1.836-0.471c-0.529-0.314-0.938-0.761-1.227-1.339c-0.288-0.578-0.438-1.25-0.45-2.015v-0.776
			c0-0.784,0.146-1.475,0.438-2.072c0.291-0.598,0.711-1.058,1.256-1.382c0.546-0.323,1.176-0.485,1.892-0.485
			c0.963,0,1.737,0.249,2.325,0.745c0.588,0.497,0.93,1.2,1.025,2.109h-1.512c-0.07-0.598-0.255-1.028-0.548-1.293
			c-0.295-0.265-0.726-0.396-1.292-0.396c-0.658,0-1.166,0.229-1.52,0.688c-0.354,0.459-0.534,1.132-0.543,2.02v0.737
			c0,0.898,0.168,1.584,0.507,2.057c0.338,0.473,0.831,0.708,1.483,0.708c0.596,0,1.043-0.127,1.342-0.382
			c0.301-0.255,0.49-0.68,0.57-1.273H292.793z"/>
		<path fill="#FFFFFF" d="M301.725,12.001c0,0.814-0.146,1.528-0.441,2.144c-0.297,0.614-0.719,1.086-1.27,1.415
			c-0.549,0.329-1.182,0.494-1.896,0.494c-0.707,0-1.338-0.165-1.891-0.494c-0.555-0.329-0.98-0.798-1.283-1.407
			c-0.301-0.608-0.453-1.311-0.458-2.105v-0.469c0-0.811,0.151-1.525,0.452-2.146c0.303-0.62,0.729-1.095,1.277-1.424
			c0.549-0.329,1.18-0.494,1.891-0.494s1.342,0.163,1.893,0.488c0.549,0.325,0.973,0.794,1.273,1.404
			c0.299,0.611,0.449,1.321,0.453,2.132V12.001z M300.209,11.567c0-0.921-0.184-1.627-0.549-2.118
			c-0.365-0.491-0.883-0.736-1.555-0.736c-0.656,0-1.169,0.244-1.538,0.733c-0.368,0.489-0.56,1.181-0.565,2.075V12
			c0,0.913,0.187,1.619,0.561,2.117c0.373,0.499,0.893,0.748,1.555,0.748c0.672,0,1.188-0.243,1.551-0.73
			c0.361-0.487,0.541-1.199,0.541-2.135V11.567L300.209,11.567z"/>
		<path fill="#FFFFFF" d="M303.893,14.479c0.271,0,0.48,0.073,0.629,0.22c0.148,0.146,0.223,0.33,0.223,0.551
			c0,0.217-0.074,0.396-0.223,0.539c-0.146,0.143-0.357,0.214-0.629,0.214c-0.26,0-0.467-0.07-0.617-0.211
			c-0.152-0.141-0.229-0.321-0.229-0.542s0.074-0.404,0.223-0.551C303.417,14.552,303.625,14.479,303.893,14.479z"/>
		<path fill="#FFFFFF" d="M307.221,17.812l-0.785-0.445c0.232-0.346,0.393-0.647,0.479-0.904s0.131-0.519,0.135-0.785v-1.079h1.313
			l-0.006,0.999c-0.004,0.403-0.111,0.808-0.32,1.213C307.825,17.215,307.553,17.549,307.221,17.812z"/>
		<path fill="#FFFFFF" d="M315.641,14.786h3.961v1.153h-5.479V7.628h1.518V14.786z"/>
		<path fill="#FFFFFF" d="M326.458,8.793h-2.721v7.146h-1.504V8.793h-2.697V7.628h6.922V8.793z"/>
		<path fill="#FFFFFF" d="M328.215,15.939V7.628h2.578c0.771,0,1.455,0.164,2.053,0.491c0.598,0.327,1.061,0.792,1.389,1.393
			c0.328,0.602,0.49,1.29,0.49,2.066v0.417c0,0.788-0.164,1.48-0.494,2.078c-0.328,0.597-0.799,1.058-1.408,1.381
			c-0.609,0.323-1.309,0.485-2.094,0.485H328.215z M329.733,8.793v5.993h0.988c0.795,0,1.406-0.236,1.832-0.71
			c0.426-0.475,0.643-1.154,0.65-2.041v-0.463c0-0.901-0.207-1.59-0.617-2.066c-0.412-0.476-1.01-0.713-1.793-0.713H329.733
			L329.733,8.793z"/>
		<path fill="#FFFFFF" d="M336.893,14.479c0.271,0,0.48,0.073,0.629,0.22c0.148,0.146,0.223,0.33,0.223,0.551
			c0,0.217-0.074,0.396-0.223,0.539c-0.146,0.143-0.357,0.214-0.629,0.214c-0.26,0-0.467-0.07-0.617-0.211
			c-0.152-0.141-0.229-0.321-0.229-0.542s0.074-0.404,0.223-0.551C336.417,14.552,336.625,14.479,336.893,14.479z"/>
	</g>
	<path fill="#FFFFFF" d="M158.641,22.894l-0.766,0.019h-4.579c-1.465,0-2.3,0.459-2.909,1.436c-0.117,0.248-0.225,0.519-0.326,0.837
		l-5.234,19.28c-0.083,0.205-0.205,0.287-0.329,0.287h-0.204c-0.123,0-0.247-0.082-0.33-0.287l-5.796-18.846
		c-0.616-2.012-1.644-2.709-3.698-2.709h-4.843c-1.683,0-2.832,0.573-3.446,2.709l-5.619,18.846
		c-0.083,0.205-0.207,0.287-0.287,0.287h-0.207c-0.166,0-0.245-0.082-0.286-0.287l-5.077-17.981l-0.35-1.237
		c-0.103-0.319-0.206-0.567-0.316-0.815c-0.599-1.024-1.428-1.498-2.872-1.521h-5.258l0.356,1.11l7.032,23.976
		c0.864,3,1.806,3.655,3.9,3.655h5.587c1.807,0,2.668-0.739,3.57-3.655l5.492-17.9c0.04-0.205,0.124-0.286,0.288-0.286h0.166
		c0.165,0,0.203,0.081,0.244,0.286l5.428,17.9c0.864,2.916,1.767,3.655,3.573,3.655h5.749c1.724,0,2.708-0.739,3.611-3.655
		l7.38-23.976L158.641,22.894z"/>
	<path fill="#FFFFFF" d="M264.309,22.896v17.912c0,7.884,3.207,10.843,11.624,10.843h11.944c8.418,0,11.619-2.959,11.615-10.843
		V23.976l0.02-1.063l-1.08-0.002h-3.398c-1.871,0-2.886,0.961-2.965,2.762v14.399c0,3.695-0.9,4.641-4.473,4.641h-11.372
		c-3.572,0-4.437-0.944-4.437-4.641V25.636c-0.093-1.776-1.105-2.726-2.967-2.726h-3.438L264.309,22.896z"/>
	<path fill="#FFFFFF" d="M303.784,22.904l1.127,1.234l11.502,12.357l-12.887,13.922l-1.242,1.242h7.117
		c1.301-0.019,2.184-0.371,2.926-1.168h0.021l8.588-9.293l8.619,9.447c0.709,0.684,1.551,1.012,2.76,1.023h5.785l1.637-0.019
		l-1.188-1.221l-12.65-13.632l11.941-12.646l1.162-1.229h-1.611l-4.223-0.001h-1.145c-1.252,0-2.111,0.335-2.836,1.038l-7.688,8.276
		l-7.553-8.254c-0.73-0.721-1.596-1.061-2.863-1.061h-1.141h0.002h-4.584L303.784,22.904z"/>
	<path fill="#FFFFFF" d="M176.33,29.807h0.204c0.207,0,0.329,0.079,0.452,0.284l1.474,2.822l4.035,7.729h-12.031l3.938-7.729
		l1.438-2.822C176.004,29.886,176.125,29.807,176.33,29.807 M174.645,22.908c-1.93,0-3.45,0.696-4.969,3.612l-3.353,6.394
		l-9.241,17.625l-0.617,1.107h5.582c2.037,0,3-0.447,3.575-1.578l0.739-1.395l1.232-2.403h17.818l1.603,3.071l0.386,0.727
		c0.578,1.131,1.539,1.578,3.576,1.578h5.406l-0.582-1.107l-9.407-17.625l-3.412-6.394c-1.56-2.916-3-3.612-5.463-3.612H174.645z"/>
	<path fill="#FFFFFF" d="M198.508,22.905V40.81c0,7.882,3.207,10.838,11.625,10.838h17.979v-4.132
		c-0.053-1.765-0.99-2.729-2.719-2.817h-14.98c-3.572,0-4.436-0.941-4.436-4.639V25.686c-0.064-1.775-1.035-2.739-2.822-2.789
		h-3.583L198.508,22.905z"/>
	<path fill="#FFFFFF" d="M231.68,22.905V40.81c0,7.882,3.207,10.838,11.625,10.838h17.979v-4.132
		c-0.052-1.765-0.99-2.729-2.719-2.817h-14.98c-3.57,0-4.434-0.941-4.434-4.639V25.686c-0.066-1.775-1.037-2.739-2.824-2.789h-3.582
		L231.68,22.905z"/>
	<g>
		<path fill="#FFFFFF" d="M351.821,23.857c0,2.737-2.342,4.928-5.17,4.928c-2.852,0-5.17-2.21-5.17-4.928
			c0-2.716,2.318-4.928,5.17-4.928C349.5,18.93,351.821,21.142,351.821,23.857z M351.456,23.857c0-2.526-2.154-4.58-4.805-4.58
			c-2.674,0-4.807,2.074-4.807,4.58c0,2.527,2.154,4.58,4.807,4.58C349.301,28.437,351.456,26.385,351.456,23.857z M346.772,21.057
			c1.305,0,2.299,0.411,2.299,1.653c0,0.811-0.486,1.348-1.229,1.59l1.459,2.242h-1.205l-1.324-2.084h-0.93v2.084h-1.146v-5.485
			H346.772z M345.842,23.699h0.83c0.873,0,1.303-0.337,1.303-0.926c0-0.621-0.475-0.854-1.313-0.854h-0.818v1.78H345.842z"/>
	</g>
</g>
</svg>
